Coordinates
version=1
nRows=18
nColumns=22
inDegrees=yes

Units are S.I. units (second, meters, Newtons, ...)
If the header above contains a line with 'inDegrees', this indicates whether rotational values are in degrees (yes) or radians (no).

endheader
time	pelvis_tilt	pelvis_list	pelvis_rotation	pelvis_tx	pelvis_ty	pelvis_tz	hip_flexion_r	hip_adduction_r	hip_rotation_r	knee_angle_r	ankle_angle_r	subtalar_angle_r	hip_flexion_l	hip_adduction_l	hip_rotation_l	knee_angle_l	ankle_angle_l	subtalar_angle_l	lumbar_extension	lumbar_bending	lumbar_rotation
      1.34000000	     -1.16220528	     -2.01619755	     -3.48808040	     -1.21783606	      1.01385931	      0.35751015	     17.79083209	     -0.04574637	     -1.92160481	    -41.77783570	      9.52716096	      1.32769156	      2.49344434	      2.42108827	     -1.75103436	    -13.89083381	     14.21133335	     -8.14164724	    -11.55814238	      0.23383788	      0.96952670
      1.35000000	     -1.13855493	     -2.02999860	     -3.10609362	     -1.21643690	      1.01377029	      0.35636931	     18.40201016	     -0.01638404	     -1.70766629	    -42.72042037	      9.39484707	      1.17222298	      2.38667553	      2.46486696	     -1.39856455	    -13.85511151	     14.25407348	     -8.18490973	    -11.61121894	      0.27826432	      0.78135438
      1.36000000	     -1.11525389	     -2.05610165	     -2.70844848	     -1.21496862	      1.01370473	      0.35527091	     18.96669690	      0.03719051	     -1.50180047	    -43.48639888	      9.31665467	      1.03529691	      2.26991265	      2.48922959	     -1.03679814	    -13.80980533	     14.29340528	     -8.22654966	    -11.66429299	      0.33340156	      0.59090213
      1.37000000	     -1.09979163	     -2.09550896	     -2.29978469	     -1.21344125	      1.01364975	      0.35420523	     19.49496649	      0.11352152	     -1.30372291	    -44.07019333	      9.28380677	      0.91456816	      2.15155137	      2.49392419	     -0.66976631	    -13.75293229	     14.33628949	     -8.27033012	    -11.70991610	      0.40484373	      0.40320587
      1.38000000	     -1.08485655	     -2.14813450	     -1.88428017	     -1.21185131	      1.01362054	      0.35315881	     19.98192835	      0.20500492	     -1.12010369	    -44.47403905	      9.28377195	      0.81898130	      2.02497038	      2.48030069	     -0.30104544	    -13.68752678	     14.37524876	     -8.30632216	    -11.75878735	      0.49238376	      0.22912880
      1.39000000	     -1.07847726	     -2.21253370	     -1.46385013	     -1.21019261	      1.01360226	      0.35213110	     20.43884929	      0.30703694	     -0.95302493	    -44.70433461	      9.31131641	      0.73824148	      1.89990186	      2.45037860	      0.06981019	    -13.61512904	     14.41490497	     -8.33801384	    -11.79882274	      0.59556771	      0.06826987
      1.40000000	     -1.08044026	     -2.28659189	     -1.04178267	     -1.20846833	      1.01358891	      0.35110900	     20.86916659	      0.41306952	     -0.79955528	    -44.76946083	      9.35598813	      0.66364076	      1.77827180	      2.40755203	      0.43947106	    -13.53916019	     14.45540562	     -8.36628166	    -11.83161497	      0.71262078	     -0.07654936
      1.41000000	     -1.08564132	     -2.36979952	     -0.61926313	     -1.20667650	      1.01358624	      0.35009103	     21.26967755	      0.52172939	     -0.65463346	    -44.68087022	      9.40510563	      0.58909445	      1.65596523	      2.35350419	      0.81332789	    -13.46231263	     14.49693343	     -8.38479239	    -11.86329126	      0.84301825	     -0.20268220
      1.42000000	     -1.09211883	     -2.45994908	     -0.19697661	     -1.20481488	      1.01358575	      0.34906769	     21.64271733	      0.62861555	     -0.51595236	    -44.45450062	      9.44671302	      0.50340164	      1.53278430	      2.29105932	      1.18817623	    -13.38801899	     14.54037478	     -8.39469290	    -11.89512993	      0.98639770	     -0.30818350
      1.43000000	     -1.10049200	     -2.55303588	      0.22852582	     -1.20290440	      1.01358925	      0.34804642	     21.98704292	      0.72888037	     -0.38577448	    -44.08976132	      9.47071478	      0.38992867	      1.41509368	      2.22432874	      1.56893256	    -13.32375248	     14.59079335	     -8.40201084	    -11.93343930	      1.13604179	     -0.40880836
      1.44000000	     -1.10591881	     -2.64903651	      0.64697322	     -1.20093695	      1.01359040	      0.34704164	     22.30690313	      0.82538149	     -0.25546281	    -43.61143338	      9.48043623	      0.25424908	      1.29415453	      2.15266200	      1.94771346	    -13.26547836	     14.64745702	     -8.40363462	    -11.98189643	      1.29055256	     -0.48884726
      1.45000000	     -1.10910972	     -2.74534677	      1.05435256	     -1.19892006	      1.01358369	      0.34605701	     22.60689291	      0.91678989	     -0.11990762	    -43.03089797	      9.47796451	      0.12461538	      1.17430037	      2.07892683	      2.31734331	    -13.22009945	     14.71039935	     -8.39645795	    -12.04102263	      1.44740974	     -0.54483601
      1.46000000	     -1.10994751	     -2.83977967	      1.45013510	     -1.19686055	      1.01356528	      0.34510077	     22.89050648	      1.00204263	      0.01968435	    -42.36163376	      9.46432569	      0.00072622	      1.05633105	      2.00484468	      2.67952146	    -13.18791948	     14.78247576	     -8.38445380	    -12.11299126	      1.60337057	     -0.58470006
      1.47000000	     -1.11259175	     -2.93146889	      1.83212279	     -1.19476262	      1.01352620	      0.34419389	     23.16536276	      1.08519264	      0.17220305	    -41.61471923	      9.43874027	     -0.09739581	      0.94487910	      1.93037691	      3.03034895	    -13.16930188	     14.86125924	     -8.36787931	    -12.19315152	      1.75292374	     -0.60230823
      1.48000000	     -1.13247081	     -3.01267134	      2.17716685	     -1.19260121	      1.01343917	      0.34335438	     23.45296766	      1.16581741	      0.35878748	    -40.80857267	      9.41279149	     -0.14813705	      0.83997965	      1.86542514	      3.36192363	    -13.13783653	     14.93856469	     -8.34694424	    -12.26169362	      1.88690344	     -0.57793273
      1.49000000	     -1.12274678	     -3.10245204	      2.55997361	     -1.19045189	      1.01337470	      0.34249924	     23.69390133	      1.24203194	      0.51315046	    -39.93377056	      9.33984538	     -0.20247369	      0.74625000	      1.78707310	      3.70292679	    -13.18232359	     15.04177423	     -8.32730973	    -12.38519165	      2.03735635	     -0.60538608
      1.50000000	     -1.12982833	     -3.18530175	      2.91296365	     -1.18823013	      1.01326275	      0.34172461	     23.94638049	      1.32280509	      0.69805620	    -39.01435297	      9.26160252	     -0.20880050	      0.65499702	      1.71323696	      4.02940940	    -13.20698623	     15.14145320	     -8.30358343	    -12.49357175	      2.17220610	     -0.59185875
      1.51000000	     -1.13924558	     -3.26632547	      3.26048742	     -1.18595977	      1.01312249	      0.34099851	     24.19293434	      1.40621981	      0.89237904	    -38.05647979	      9.16604625	     -0.17256421	      0.57003074	      1.63729318	      4.34957611	    -13.24338325	     15.24987812	     -8.27575994	    -12.61000914	      2.30267251	     -0.57541197
